<?xml version="1.0" standalone="no"?>
<!DOCTYPE svg PUBLIC "-//W3C//DTD SVG 20010904//EN"
 "http://www.w3.org/TR/2001/REC-SVG-20010904/DTD/svg10.dtd">
<svg version="1.0" xmlns="http://www.w3.org/2000/svg"
 width="500.000000pt" height="500.000000pt" viewBox="0 0 500.000000 500.000000"
 preserveAspectRatio="xMidYMid meet">
<metadata>
Created by potrace 1.14, written by Peter Selinger 2001-2017
</metadata>
<g transform="translate(0.000000,500.000000) scale(0.100000,-0.100000)"
fill="#000000" stroke="none">
<path d="M2472 3550 c-23 -17 -42 -34 -42 -39 0 -16 -208 -219 -271 -264 -99
-70 -212 -123 -349 -161 -135 -38 -159 -54 -161 -110 -1 -39 2 -112 6 -151 5
-48 15 -129 19 -145 1 -8 6 -33 10 -55 94 -489 337 -894 661 -1100 74 -47 213
-115 236 -115 9 0 43 14 75 31 285 150 485 350 622 625 123 244 176 483 177
784 0 175 -7 191 -95 215 -204 57 -310 104 -419 188 -60 46 -210 194 -249 245
-33 44 -100 82 -144 82 -23 0 -49 -10 -76 -30z"/>
</g>
</svg>
